<?xml version="1.0" encoding="UTF-8" standalone="no"?>
<svg
   height="16"
   viewBox="0 0 16 16"
   width="16"
   version="1.1"
   id="svg1"
   sodipodi:docname="ik_mod.svg"
   inkscape:version="1.2.2 (b0a8486541, 2022-12-01)"
   xmlns:inkscape="http://www.inkscape.org/namespaces/inkscape"
   xmlns:sodipodi="http://sodipodi.sourceforge.net/DTD/sodipodi-0.dtd"
   xmlns="http://www.w3.org/2000/svg"
   xmlns:svg="http://www.w3.org/2000/svg">
  <defs
     id="defs1" />
  <sodipodi:namedview
     id="namedview1"
     pagecolor="#ffffff"
     bordercolor="#111111"
     borderopacity="1"
     inkscape:showpageshadow="0"
     inkscape:pageopacity="0"
     inkscape:pagecheckerboard="1"
     inkscape:deskcolor="#d1d1d1"
     inkscape:zoom="37.255688"
     inkscape:cx="8.1061448"
     inkscape:cy="7.5022101"
     inkscape:window-width="1920"
     inkscape:window-height="1009"
     inkscape:window-x="1920"
     inkscape:window-y="32"
     inkscape:window-maximized="1"
     inkscape:current-layer="svg1"
     showgrid="true" />
  <path
     d="M 2.5542971,9.3957263 A 2.1871367,2.1871367 0 1 0 4.3046583,13.284651 2.1871367,2.1871367 0 1 0 6.0550195,9.3957263 V 4.9304552 A 2.1871367,2.1871367 0 1 0 4.3046583,1.04153 2.1871367,2.1871367 0 1 0 2.5542971,4.9304552 Z"
     fill="#8da5f3"
     id="path1"
     style="fill:#8da5f3;fill-opacity:1;stroke-width:0.886917" />
  <path
     d="m 6.4047533,9.7454615 a 2.1871367,2.1871367 0 1 0 -3.888925,1.7503605 2.1871367,2.1871367 0 1 0 3.888925,1.750362 h 4.4652707 a 2.1871367,2.1871367 0 1 0 3.888925,-1.750362 2.1871367,2.1871367 0 1 0 -3.888925,-1.7503605 z"
     fill="#8da5f3"
     id="path1-6"
     style="opacity:0.5;fill:#8da5f3;fill-opacity:1;stroke-width:0.886917"
     inkscape:transform-center-x="-4.3327302" />
  <text
     xml:space="preserve"
     style="font-size:11.8255px;font-family:Ubuntu;-inkscape-font-specification:Ubuntu;text-align:center;text-anchor:middle;fill:none;stroke:#000000;stroke-width:10.0564;stroke-linecap:round;stroke-linejoin:round"
     x="2.0814681"
     y="6.4308157"
     id="text1"><tspan
       sodipodi:role="line"
       id="tspan1"
       x="2.0814681"
       y="6.4308157"
       style="stroke-width:10.0564" /></text>
  <path
     style="fill:none;stroke:#ff5555;stroke-width:0.793381;stroke-linecap:round;stroke-linejoin:round;stroke-dasharray:none;stroke-opacity:1"
     id="path345"
     sodipodi:type="arc"
     sodipodi:cx="-10.83263"
     sodipodi:cy="4.5017562"
     sodipodi:rx="5.1773453"
     sodipodi:ry="5.367795"
     sodipodi:start="0"
     sodipodi:end="1.5707963"
     sodipodi:arc-type="slice"
     d="M -5.6552849,4.5017562 A 5.1773453,5.367795 0 0 1 -10.83263,9.8695512 V 4.5017562 Z"
     transform="rotate(-90)" />
</svg>
