<?xml version="1.0" encoding="UTF-8" standalone="no"?>
<svg
   width="400"
   height="400"
   version="1.1"
   viewBox="0 0 400 400"
   xml:space="preserve"
   id="svg10"
   sodipodi:docname="head.svg"
   inkscape:version="1.2.2 (b0a8486541, 2022-12-01)"
   xmlns:inkscape="http://www.inkscape.org/namespaces/inkscape"
   xmlns:sodipodi="http://sodipodi.sourceforge.net/DTD/sodipodi-0.dtd"
   xmlns="http://www.w3.org/2000/svg"
   xmlns:svg="http://www.w3.org/2000/svg"><defs
     id="defs14" /><sodipodi:namedview
     id="namedview12"
     pagecolor="#ffffff"
     bordercolor="#000000"
     borderopacity="0.25"
     inkscape:showpageshadow="2"
     inkscape:pageopacity="0.0"
     inkscape:pagecheckerboard="0"
     inkscape:deskcolor="#d1d1d1"
     showgrid="true"
     inkscape:zoom="1.5344217"
     inkscape:cx="127.73542"
     inkscape:cy="249.27958"
     inkscape:window-width="1920"
     inkscape:window-height="1009"
     inkscape:window-x="1920"
     inkscape:window-y="32"
     inkscape:window-maximized="1"
     inkscape:current-layer="svg10"><inkscape:grid
       type="xygrid"
       id="grid236" /></sodipodi:namedview><g
     stroke-opacity="0"
     id="g8"
     transform="matrix(1.0106383,0,0,1.0106383,1.9148936,-6.1702128)"><path
       id="circle2"
       style="fill:#808080"
       d="M 196 16 A 188 188 0 0 0 8 204 A 188 188 0 0 0 196 392 A 188 188 0 0 0 384 204 A 188 188 0 0 0 196 16 z M 276.24979 88.49634 A 59.754002 59.754002 0 0 1 336.00473 148.24934 A 59.754002 59.754002 0 0 1 276.24979 208.00428 A 59.754002 59.754002 0 0 1 216.49679 148.24934 A 59.754002 59.754002 0 0 1 276.24979 88.49634 z " /><circle
       cx="308.25"
       cy="148.25"
       r="19.754"
       id="circle6" /></g></svg>
